#!OML:ASF E:\Style4\Style4.ASF
:FULLY-SPECIFIED
:DEGREES
1744
root -0.647866 17.0403 -1.64372 1.05217 10.3774 4.26985
lowerback 13.4494 3.42689 1.20623
upperback 12.6916 4.63785 2.68244
thorax 5.84015 2.34371 1.78511
lowerneck 2.78153 -8.40613 -7.30023
upperneck -6.48003 -11.3923 4.25601
head -1.85511 -5.64664 2.83058
rclavicle -4.69132e-014 1.27222e-014
rhumerus 36.137 35.4945 -59.022
rradius 86.2961
rwrist -45.6689
rhand -22.2618 16.3954
rfingers 7.12502
rthumb 4.15598 -13.5438
lclavicle -4.69132e-014 1.27222e-014
lhumerus 17.9421 -26.8247 80.399
lradius 100.797
lwrist 45.1014
lhand -29.6699 34.702
lfingers 7.12502
lthumb -2.99864 64.6607
rfemur -24.8197 -8.68523 16.6128
rtibia 51.6174
rfoot -25.81 -18.6482
rtoes -8.17017
lfemur -25.5122 -3.20136 -21.4706
ltibia 46.7692
lfoot -20.0358 2.69044
ltoes -17.3715
1745
root -0.623205 17.0481 -1.64397 1.10919 10.4506 4.33281
lowerback 13.5255 3.37044 1.33954
upperback 12.5996 4.57147 2.87972
thorax 5.69272 2.31126 1.9137
lowerneck 2.7629 -8.46551 -7.30566
upperneck -6.42447 -11.497 3.79229
head -1.8543 -5.68574 2.67759
rclavicle 1.35174e-014 4.92986e-014
rhumerus 35.5388 36.133 -60.293
rradius 86.3575
rwrist -45.3225
rhand -23.1194 16.9562
rfingers 7.12502
rthumb 3.32782 -12.9975
lclavicle 1.35174e-014 4.92986e-014
lhumerus 17.6201 -26.682 79.967
lradius 100.837
lwrist 44.6115
lhand -29.4764 34.663
lfingers 7.12502
lthumb -2.81183 64.6243
rfemur -24.7952 -8.70149 16.4506
rtibia 51.5724
rfoot -25.8679 -18.6027
rtoes -7.69193
lfemur -25.4594 -3.25175 -21.631
ltibia 46.5879
lfoot -19.9769 2.64765
ltoes -17.0716
1746
root -0.598132 17.0582 -1.64463 1.14225 10.5031 4.39523
lowerback 13.6035 3.34811 1.5545
upperback 12.5209 4.55886 3.03608
thorax 5.56852 2.31367 1.95062
lowerneck 2.81784 -8.55168 -7.27161
upperneck -6.42116 -11.637 3.40581
head -1.87983 -5.74511 2.55075
rclavicle -5.56597e-014 3.33958e-014
rhumerus 34.8126 36.5869 -61.6775
rradius 86.3993
rwrist -45.0295
rhand -23.8047 17.5164
rfingers 7.12502
rthumb 2.66597 -12.4467
lclavicle -5.56597e-014 3.33958e-014
lhumerus 17.3492 -26.7708 79.4945
lradius 100.947
lwrist 44.1189
lhand -29.4207 34.7526
lfingers 7.12502
lthumb -2.75798 64.7145
rfemur -24.7447 -8.67177 16.2813
rtibia 51.5181
rfoot -25.8646 -18.6218
rtoes -7.53737
lfemur -25.3722 -3.24286 -21.7938
ltibia 46.3936
lfoot -19.9017 2.63636
ltoes -17.159
1747
root -0.572782 17.066 -1.64348 1.2411 10.5149 4.61067
lowerback 13.5432 3.37767 1.6106
upperback 12.5126 4.59723 3.17444
thorax 5.5843 2.33071 2.06529
lowerneck 2.85112 -8.66186 -7.4269
upperneck -6.47775 -11.8066 3.21696
head -1.89767 -5.81971 2.52027
rclavicle -6.59965e-014 -1.90833e-014
rhumerus 34.2857 36.8788 -62.8272
rradius 86.3899
rwrist -44.9971
rhand -24.3784 17.9566
rfingers 7.12502
rthumb 2.11193 -12.0127
lclavicle -6.59965e-014 -1.90833e-014
lhumerus 17.3105 -26.9811 78.9901
lradius 100.956
lwrist 43.7258
lhand -29.7307 34.596
lfingers 7.12502
lthumb -3.05738 64.5538
rfemur -24.759 -8.68211 15.944
rtibia 51.4758
rfoot -25.8051 -18.5722
rtoes -7.41306
lfemur -25.304 -3.19359 -22.1228
ltibia 46.1887
lfoot -19.8129 2.55959
ltoes -16.9543
1748
root -0.547902 17.0711 -1.64344 1.34155 10.5126 4.85672
lowerback 13.4767 3.40532 1.60459
upperback 12.5284 4.62728 3.30561
thorax 5.62583 2.33941 2.20938
lowerneck 2.78208 -8.7913 -7.47876
upperneck -6.51725 -11.9941 2.94772
head -1.90163 -5.90334 2.4399
rclavicle -5.48646e-014 6.36111e-015
rhumerus 33.8984 37.2096 -63.8276
rradius 86.3798
rwrist -45.1693
rhand -25.044 18.5785
rfingers 7.12502
rthumb 1.46908 -11.3962
lclavicle -5.48646e-014 6.36111e-015
lhumerus 17.2464 -27.0971 78.6038
lradius 100.843
lwrist 43.2492
lhand -29.8666 34.3817
lfingers 7.12502
lthumb -3.18865 64.3376
rfemur -24.793 -8.70887 15.5747
rtibia 51.4397
rfoot -25.7332 -18.518
rtoes -7.38227
lfemur -25.2411 -3.16209 -22.478
ltibia 45.9762
lfoot -19.6969 2.47739
ltoes -16.467
1749
root -0.521561 17.0759 -1.64203 1.36985 10.4598 4.97666
lowerback 13.4679 3.41372 1.78907
upperback 12.5381 4.65009 3.39603
thorax 5.64904 2.36005 2.20218
lowerneck 2.67148 -8.91912 -7.37402
upperneck -6.52895 -12.1715 2.62558
head -1.90244 -5.98455 2.31376
rclavicle 3.65764e-014 -3.97569e-014
rhumerus 33.3274 37.5159 -64.9881
rradius 86.4864
rwrist -45.2834
rhand -25.5799 19.2133
rfingers 7.12502
rthumb 0.951486 -10.7644
lclavicle 3.65764e-014 -3.97569e-014
lhumerus 17.0164 -27.1813 78.2459
lradius 100.743
lwrist 42.6932
lhand -29.5588 34.4588
lfingers 7.12502
lthumb -2.89134 64.4189
rfemur -24.7634 -8.69159 15.3368
rtibia 51.4002
rfoot -25.7312 -18.4749
rtoes -7.70942
lfemur -25.1156 -3.08516 -22.7069
ltibia 45.7716
lfoot -19.6285 2.4397
ltoes -16.197
